<?xml version="1.0" encoding="utf-8"?>
<!-- Generator: Adobe Illustrator 25.3.1, SVG Export Plug-In . SVG Version: 6.00 Build 0)  -->
<svg version="1.1" id="图层_1" xmlns="http://www.w3.org/2000/svg" xmlns:xlink="http://www.w3.org/1999/xlink" x="0px" y="0px"
	 viewBox="0 0 48 48" style="enable-background:new 0 0 48 48;" xml:space="preserve">
<style type="text/css">
	.st0{fill:#23272E;}
	.st1{fill:#FF3D1F;}
</style>
<path class="st0" d="M40.8,1.2c1.9,0,3.4,1.6,3.6,3.5l0,0.4v4.6c0,0.7-0.5,1.2-1.2,1.2c-0.6,0-1.1-0.4-1.2-1l0-0.2V5.1
	c0-0.8-0.5-1.4-1-1.5l-0.2,0H7.2C6.6,3.6,6.1,4.1,6,4.8l0,0.3v37.8c0,0.8,0.5,1.4,1,1.5l0.2,0h33.6c0.6,0,1.1-0.5,1.2-1.2l0-0.3
	V18.1c0-0.7,0.5-1.2,1.2-1.2c0.6,0,1.1,0.4,1.2,1l0,0.2v24.8c0,2-1.4,3.7-3.3,3.9l-0.3,0H7.2c-1.9,0-3.4-1.6-3.6-3.5l0-0.4V5.1
	c0-2,1.4-3.7,3.3-3.9l0.3,0H40.8z"/>
<path class="st1" d="M14.4,30.3c0.5,0,1,0.4,1.1,0.9l0,0.2v7.2c0,0.6-0.5,1.1-1.1,1.1c-0.5,0-1-0.4-1.1-0.9l0-0.2v-7.2
	C13.3,30.8,13.8,30.3,14.4,30.3z M33.6,30.3c0.5,0,1,0.4,1.1,0.9l0,0.2v7.2c0,0.6-0.5,1.1-1.1,1.1c-0.5,0-1-0.4-1.1-0.9l0-0.2v-7.2
	C32.5,30.8,33,30.3,33.6,30.3z M24,35.1c0.5,0,1,0.4,1.1,0.9l0,0.2v2.4c0,0.6-0.5,1.1-1.1,1.1c-0.5,0-1-0.4-1.1-0.9l0-0.2v-2.4
	C22.9,35.6,23.4,35.1,24,35.1z"/>
<path class="st1" d="M28.8,8.2h-9.5c-1,0-2,0.5-2.6,1.3l-5.1,6.9c-0.9,1.3-0.8,3,0.3,4.2L21.7,31c1.2,1.3,3.2,1.3,4.5,0.1
	c0,0,0.1-0.1,0.1-0.1l9.9-10.4c1.1-1.2,1.2-2.9,0.2-4.2l-5.1-6.9C30.7,8.7,29.8,8.2,28.8,8.2L28.8,8.2z M19.3,10.4h9.5
	c0.3,0,0.6,0.2,0.8,0.4l5.1,6.9c0.3,0.4,0.3,1-0.1,1.4l-9.9,10.4c-0.4,0.4-1,0.4-1.4,0c0,0,0,0,0,0l-9.9-10.4
	c-0.4-0.4-0.4-1-0.1-1.4l5.1-6.9C18.6,10.5,18.9,10.4,19.3,10.4z"/>
</svg>
