<?xml version="1.0" standalone="no"?><!DOCTYPE svg PUBLIC "-//W3C//DTD SVG 1.1//EN" "http://www.w3.org/Graphics/SVG/1.1/DTD/svg11.dtd"><svg t="1663751892310" class="icon" viewBox="0 0 1024 1024" version="1.1" xmlns="http://www.w3.org/2000/svg" p-id="1622" xmlns:xlink="http://www.w3.org/1999/xlink" width="200" height="200"><path d="M448 58.5728L151.3472 229.888a128 128 0 0 0-64 110.848v342.528a128 128 0 0 0 64 110.848l296.6528 171.3152a128 128 0 0 0 128 0l296.6528-171.3152a128 128 0 0 0 64-110.848v-342.528a128 128 0 0 0-64-110.848L576 58.5728a128 128 0 0 0-128 0z m102.4 44.3392l296.6528 171.3152a76.8 76.8 0 0 1 38.4 66.5088v342.528a76.8 76.8 0 0 1-38.4 66.56L550.4 921.088a76.8 76.8 0 0 1-76.8 0l-296.6528-171.3152a76.8 76.8 0 0 1-38.4-66.5088v-342.528a76.8 76.8 0 0 1 38.4-66.56L473.6 102.912a76.8 76.8 0 0 1 76.8 0z" fill="#23272E" p-id="1623"></path><path d="M537.6 270.7968l170.496 98.4064a51.2 51.2 0 0 1 25.6 44.3392v196.9152a51.2 51.2 0 0 1-25.6 44.3392L537.6 753.152a51.2 51.2 0 0 1-51.2 0L315.904 654.848a51.2 51.2 0 0 1-25.6-44.3392V413.5424a51.2 51.2 0 0 1 25.6-44.3392L486.4 270.848a51.2 51.2 0 0 1 51.2 0z" fill="#FF3D1F" fill-opacity=".5" p-id="1624"></path><path d="M473.6 248.6272L303.104 347.0336a76.8 76.8 0 0 0-38.4 66.56v196.864a76.8 76.8 0 0 0 38.4 66.5088l170.496 98.4064a76.8 76.8 0 0 0 76.8 0l170.496-98.4064a76.8 76.8 0 0 0 38.4-66.56V413.5936a76.8 76.8 0 0 0-38.4-66.5088l-170.496-98.4064a76.8 76.8 0 0 0-76.8 0z m51.2 44.3392l170.496 98.4064a25.6 25.6 0 0 1 12.8 22.1696v196.9152a25.6 25.6 0 0 1-12.8 22.1696l-170.496 98.4064a25.6 25.6 0 0 1-25.6 0l-170.496-98.4064a25.6 25.6 0 0 1-12.8-22.1696V413.5424a25.6 25.6 0 0 1 12.8-22.1696l170.496-98.4064a25.6 25.6 0 0 1 25.6 0z" fill="#FF3D1F" p-id="1625"></path><path d="M512 486.4a25.6 25.6 0 0 1 25.1904 20.992l0.4096 4.608v148.992a25.6 25.6 0 0 1-50.7904 4.608l-0.4096-4.608V512a25.6 25.6 0 0 1 25.6-25.6z" fill="#FF3D1F" p-id="1626"></path><path d="M623.8208 417.792a25.6 25.6 0 0 1 29.3888 41.728l-3.7888 2.6624-124.6208 71.9872a25.6 25.6 0 0 1-29.3888-41.6768l3.7888-2.6624 124.6208-71.9872z" fill="#FF3D1F" p-id="1627"></path><path d="M362.8544 426.1376a25.6 25.6 0 0 1 30.7712-11.3152l4.1984 1.9456 126.976 73.0624a25.6 25.6 0 0 1-21.4016 46.2848l-4.1472-1.9456-126.976-73.0624a25.6 25.6 0 0 1-9.4208-34.9696z" fill="#FF3D1F" p-id="1628"></path></svg>