<svg width="1024" height="1024" xmlns="http://www.w3.org/2000/svg" class="icon">

 <g>
  <title>background</title>
  <rect fill="none" id="canvas_background" height="402" width="582" y="-1" x="-1"/>
 </g>
 <g>
  <title>Layer 1</title>
  <path d="m308.3776,281.6a25.6,25.6 0 0 1 4.608,50.7904l-4.608,0.4096l-205.9776,0c-12.9536,0 -23.0912,8.0384 -25.1904,17.92l-0.4096,3.7376l0,519.8848c0,10.24 8.704,19.4048 20.8896,21.2992l4.7104,0.3584l563.2,0c12.9536,0 23.0912,-8.0384 25.1904,-17.92l0.4096,-3.7376l0,-151.7568a25.6,25.6 0 0 1 50.7904,-4.608l0.4096,4.608l0,151.7568c0,38.2976 -30.8224,69.0688 -69.4784,72.5504l-7.3216,0.3072l-563.2,0c-39.5264,0 -72.704,-28.4672 -76.4416,-65.792l-0.3584,-7.0656l0,-519.8848c0,-38.2976 30.8224,-69.0688 69.4784,-72.5504l7.3216,-0.3072l205.9776,0z" fill="#23272E" id="svg_1"/>
  <path d="m203.6224,536.2176a25.6,25.6 0 0 1 25.1904,20.992l0.4096,4.608l-0.0512,179.2l136.448,0a25.6,25.6 0 0 1 25.1904,20.992l0.4096,4.608a25.6,25.6 0 0 1 -20.992,25.1904l-4.608,0.4096l-156.8768,0a30.72,30.72 0 0 1 -30.3104,-25.7024l-0.4096,-5.0176l0,-199.68a25.6,25.6 0 0 1 25.6,-25.6z" fill="#ff5656" id="svg_2"/>
  <path d="m619.013333,614.4l-154.88,0c-28.2624,0 -51.2,-20.8384 -51.2,-46.592l0,-418.816c0,-25.8048 22.9376,-46.592 51.2,-46.592l460.8,0c28.2624,0 51.2,20.8384 51.2,46.592l0,418.816c0,25.7536 -22.9376,46.592 -51.2,46.592l-305.92,0z" fill="#ffe8e8" id="svg_3" stroke="null"/>
  <path stroke="#000000" stroke-opacity="0" d="m921.6,102.4c28.2624,0 51.2,20.8384 51.2,46.592l0,418.816c0,25.7536 -22.9376,46.592 -51.2,46.592l-460.8,0c-28.2624,0 -51.2,-20.8384 -51.2,-46.592l0,-418.816c0,-25.8048 22.9376,-46.592 51.2,-46.592l460.8,0zm0,460.8l0,-409.6l-460.8,0l0,409.6l460.8,0z" fill="#ff5656" id="svg_4"/>
 </g>
</svg>