<svg id="icon-help-24" xmlns="http://www.w3.org/2000/svg" width="22" height="22" viewBox="0 0 22 22">
  <defs>
    <style>
      .cls-1 {
        fill: #fff;
      }
    </style>
  </defs>
  <g id="icon-help-30">
    <path id="icon" class="cls-1" d="M16.12,5.12a11,11,0,1,0,11,11A11,11,0,0,0,16.12,5.12ZM16.2,22.409a1.183,1.183,0,0,1-1.178-1.167A1.2,1.2,0,0,1,16.2,20.064a1.183,1.183,0,0,1,1.167,1.178A1.167,1.167,0,0,1,16.2,22.409Zm1.978-6.667A3.274,3.274,0,0,0,17,17.687v.789a.82.82,0,0,1-1.578,0v-.6a4.463,4.463,0,0,1,1.656-2.956,4.108,4.108,0,0,0,1.478-2.578,2.041,2.041,0,0,0-1.867-2.2,1.784,1.784,0,0,0-.344,0c-1.567,0-2.456,1.022-2.5,2.933a.791.791,0,0,1-.767.711.772.772,0,0,1-.756-.711v-.111A3.773,3.773,0,0,1,15.787,8.9a4.634,4.634,0,0,1,.556,0,3.314,3.314,0,0,1,3.6,3,3.12,3.12,0,0,1,.011.456A4.831,4.831,0,0,1,18.176,15.742Z" transform="translate(-5.12 -5.12)"/>
  </g>
</svg>
