<?xml version="1.0" encoding="utf-8"?>
<!-- Generator: Adobe Illustrator 25.3.1, SVG Export Plug-In . SVG Version: 6.00 Build 0)  -->
<svg version="1.1" id="图层_1" xmlns="http://www.w3.org/2000/svg" xmlns:xlink="http://www.w3.org/1999/xlink" x="0px" y="0px"
	 viewBox="0 0 48 48" style="enable-background:new 0 0 48 48;" xml:space="preserve">
<style type="text/css">
	.st0{fill:#36B368;}
</style>
<path class="st0" d="M8.9,15.4c0.2,0,0.5,0,0.7-0.1c0,0,0.2-0.1,0.3-0.1c2.3-0.8,4.8-1.2,7.5-1c3.5,0.2,7.4,1.2,11.3,3
	c0.2,0.1,0.3,0.2,0.4,0.4c0.1,0.2,0.1,0.4,0,0.6c0,0-1.8,3.7-1.8,3.7c-0.4,0.7-0.1,1.6,0.7,2c0.5,0.2,0.9,0.1,1.4,0
	c0,0,14.5-2.8,14.5-2.8c0.4-0.1,0.9-0.4,1.1-0.8c0.2-0.4,0.2-0.9,0-1.3L38.1,5.3C38,5,37.7,4.7,37.4,4.5c-0.7-0.4-1.6-0.1-2,0.7
	L33.6,9c-0.1,0.3-0.4,0.4-0.7,0.4c-0.1,0-0.2,0-0.3-0.1C32.4,9.3,27.9,7.3,22.3,7c-2.7-0.1-5.2,0.2-7.5,0.9
	c-2.8,0.9-5.2,2.4-7.2,4.5c-0.2,0.3-0.4,0.7-0.4,1C7.1,14.5,7.9,15.3,8.9,15.4L8.9,15.4z M39.2,32.6c-0.2,0-0.5,0-0.7,0.1
	c0,0-0.2,0.1-0.3,0.1c-2.3,0.8-4.8,1.2-7.5,1c-3.5-0.2-7.4-1.2-11.3-3c-0.4-0.2-0.6-0.6-0.4-1c0,0,0,0,0,0c0,0,1.8-3.7,1.8-3.7
	c0.4-0.7,0.1-1.6-0.7-2c-0.5-0.2-0.9-0.1-1.4,0c0,0-14.5,2.8-14.5,2.8c-0.4,0.1-0.9,0.4-1.1,0.8c-0.2,0.4-0.2,0.9,0,1.3
	c0,0,6.8,13.8,6.8,13.8c0.1,0.3,0.4,0.6,0.7,0.8c0.7,0.4,1.6,0.1,2-0.7c0,0,1.9-3.8,1.9-3.8c0.1-0.3,0.4-0.4,0.7-0.4
	c0.1,0,0.2,0,0.3,0.1c0.2,0.1,4.7,2.1,10.3,2.4c2.7,0.1,5.2-0.2,7.5-0.9c2.8-0.9,5.2-2.4,7.2-4.5c0.2-0.3,0.4-0.7,0.4-1
	C41.1,33.6,40.3,32.7,39.2,32.6L39.2,32.6z"/>
</svg>
