<?xml version="1.0" encoding="utf-8"?>
<!-- Generator: Adobe Illustrator 25.3.1, SVG Export Plug-In . SVG Version: 6.00 Build 0)  -->
<svg version="1.1" id="图层_1" xmlns="http://www.w3.org/2000/svg" xmlns:xlink="http://www.w3.org/1999/xlink" x="0px" y="0px"
	 viewBox="0 0 48 48" style="enable-background:new 0 0 48 48;" xml:space="preserve">
<style type="text/css">
	.st0{fill:#10AEFF;}
	.st1{fill:#FFFFFF;}
</style>
<path class="st0" d="M3,24c0,11.6,9.4,21,21,21s21-9.4,21-21S35.6,3,24,3S3,12.4,3,24z"/>
<path class="st1" d="M25.9,22v-9.7c0-1.1-0.9-1.9-1.9-1.9S22,11.2,22,12.3V22h-9.7c-1.1,0-1.9,0.9-1.9,1.9s0.9,1.9,1.9,1.9H22v9.7
	c0,1.1,0.9,1.9,1.9,1.9c0.5,0,1-0.2,1.4-0.6s0.6-0.8,0.6-1.4l0-9.7h9.7c0.5,0,1-0.2,1.4-0.6s0.6-0.8,0.6-1.4c0-1.1-0.9-1.9-1.9-1.9
	C35.6,22,25.9,22,25.9,22z"/>
</svg>
