<?xml version="1.0" encoding="utf-8"?>
<!-- Generator: Adobe Illustrator 25.3.1, SVG Export Plug-In . SVG Version: 6.00 Build 0)  -->
<svg version="1.1" id="图层_1" xmlns="http://www.w3.org/2000/svg" xmlns:xlink="http://www.w3.org/1999/xlink" x="0px" y="0px"
	 viewBox="0 0 48 48" style="enable-background:new 0 0 48 48;" xml:space="preserve">
<style type="text/css">
	.st0{fill:#2D8CF0;fill-opacity:0.5;}
	.st1{fill:#2D8CF0;}
</style>
<path class="st0" d="M24,38.2c0-0.8,0.7-1.5,1.5-1.5h13.3c0.8,0,1.5,0.7,1.5,1.5c0,0.8-0.7,1.4-1.5,1.5H25.5
	C24.7,39.7,24,39.1,24,38.2L24,38.2z"/>
<path class="st1" d="M26.1,11l7.7,7.7c0.3,0.3,0.3,0.9,0,1.2L15.9,39.1c-0.3,0.3-0.7,0.5-1.1,0.5H7.6c-0.8,0-1.5-0.7-1.5-1.5v-7.2
	c0-0.4,0.2-0.8,0.4-1l18.3-18.8C25.2,10.7,25.8,10.7,26.1,11C26.1,11,26.1,11,26.1,11L26.1,11z M32.5,4.6c0.8,0,1.6,0.3,2.2,0.9
	l4.4,4.4c1.2,1.2,1.2,3.2,0,4.4l-2,2.2c-0.3,0.4-0.9,0.4-1.3,0c0,0,0,0,0,0l-7.7-7.7c-0.3-0.3-0.3-0.8,0-1.1l2.2-2.2
	C30.9,4.9,31.7,4.6,32.5,4.6L32.5,4.6z"/>
</svg>
