<svg xmlns="http://www.w3.org/2000/svg" width="19.457" height="19.964" viewBox="0 0 19.457 19.964">
  <defs>
    <style>
      .cls-1 {
        fill: #fff;
      }
    </style>
  </defs>
  <g id="icon-hone-20" transform="translate(0 0)">
    <g id="组_4758" data-name="组 4758" transform="translate(9208.415 -3280.557)">
      <path id="减去_11" data-name="减去 11" class="cls-1" d="M92.585-97.479h-4a1,1,0,0,1-1-1v-8a1,1,0,0,1,1-1h12a1,1,0,0,1,1,1v8a1,1,0,0,1-1,1h-4v-4a1,1,0,0,0-1-1h-2a1,1,0,0,0-1,1v4Z" transform="translate(-9293.271 3398)"/>
      <path id="路径_605" data-name="路径 605" class="cls-1" d="M10.241,1.361a1,1,0,0,1,1.474,0l8.748,8.963A1,1,0,0,1,19.727,12H2.273a1,1,0,0,1-.737-1.676Z" transform="translate(-9209.687 3279.52)"/>
    </g>
  </g>
</svg>
